<svg width="99" height="26" viewBox="0 0 99 26" fill="none" xmlns="http://www.w3.org/2000/svg">
<path d="M2.744 18.032C2.872 18.224 3.16 18.408 3.608 18.584C4.072 18.744 4.536 18.824 5 18.824C5.752 18.824 6.312 18.672 6.68 18.368C7.064 18.048 7.256 17.632 7.256 17.12C7.256 16.592 7.024 16.168 6.56 15.848C6.096 15.512 5.312 15.104 4.208 14.624L3.536 14.336C2.432 13.872 1.608 13.312 1.064 12.656C0.52 12 0.248 11.152 0.248 10.112C0.248 9.392 0.464 8.752 0.896 8.192C1.328 7.616 1.936 7.168 2.72 6.848C3.504 6.528 4.408 6.368 5.432 6.368C6.184 6.368 6.824 6.416 7.352 6.512C7.896 6.608 8.464 6.736 9.056 6.896C9.376 7.008 9.616 7.072 9.776 7.088V10.232H7.88L7.328 8.408C7.232 8.248 7.016 8.104 6.68 7.976C6.344 7.848 5.96 7.784 5.528 7.784C4.872 7.784 4.344 7.928 3.944 8.216C3.56 8.488 3.368 8.872 3.368 9.368C3.368 9.816 3.504 10.192 3.776 10.496C4.048 10.784 4.344 11.008 4.664 11.168C4.984 11.328 5.576 11.592 6.44 11.96C7.304 12.328 8.016 12.68 8.576 13.016C9.152 13.352 9.624 13.792 9.992 14.336C10.376 14.864 10.568 15.512 10.568 16.28C10.568 17.464 10.104 18.424 9.176 19.16C8.248 19.896 6.912 20.264 5.168 20.264C4.352 20.264 3.616 20.192 2.96 20.048C2.32 19.904 1.576 19.712 0.728 19.472L0.2 19.304V16.136H2.192L2.744 18.032ZM13.6533 2.456L11.8293 2.144V0.847999L16.2933 0.319999H16.3653L16.9893 0.775999L17.0133 6.128L16.8453 8.216C17.3413 7.768 18.0133 7.352 18.8613 6.968C19.7253 6.584 20.6293 6.392 21.5733 6.392C22.5813 6.392 23.3653 6.584 23.9253 6.968C24.4853 7.336 24.8773 7.904 25.1013 8.672C25.3253 9.44 25.4373 10.464 25.4373 11.744V18.344L26.9733 18.56V20H20.6613V18.56L22.0533 18.344V11.744C22.0533 10.912 21.9973 10.264 21.8853 9.8C21.7733 9.336 21.5653 8.992 21.2613 8.768C20.9733 8.544 20.5413 8.432 19.9653 8.432C19.4693 8.432 18.9573 8.552 18.4293 8.792C17.9173 9.016 17.4613 9.288 17.0613 9.608V18.344L18.5253 18.56V20H12.3093V18.56L13.6533 18.368V2.456ZM28.6034 13.352C28.6034 11.848 28.8994 10.568 29.4914 9.512C30.0994 8.456 30.9074 7.664 31.9154 7.136C32.9234 6.592 34.0194 6.32 35.2034 6.32C37.2194 6.32 38.7714 6.944 39.8594 8.192C40.9634 9.424 41.5154 11.104 41.5154 13.232C41.5154 14.752 41.2114 16.048 40.6034 17.12C40.0114 18.176 39.2114 18.968 38.2034 19.496C37.2114 20.008 36.1154 20.264 34.9154 20.264C32.9154 20.264 31.3634 19.648 30.2594 18.416C29.1554 17.168 28.6034 15.48 28.6034 13.352ZM35.1074 18.704C36.9154 18.704 37.8194 16.96 37.8194 13.472C37.8194 11.648 37.6034 10.264 37.1714 9.32C36.7394 8.36 36.0354 7.88 35.0594 7.88C33.2034 7.88 32.2754 9.624 32.2754 13.112C32.2754 14.936 32.4994 16.328 32.9474 17.288C33.4114 18.232 34.1314 18.704 35.1074 18.704ZM56.9692 12.896C56.9692 14.24 56.6892 15.472 56.1292 16.592C55.5852 17.712 54.7772 18.608 53.7052 19.28C52.6492 19.936 51.3852 20.264 49.9132 20.264C49.5932 20.264 49.2572 20.232 48.9052 20.168C48.5692 20.12 48.2972 20.056 48.0892 19.976L48.1612 21.968V24.152L50.3932 24.44V25.808H43.2652V24.44L44.8252 24.152V8.936L43.2652 8.504V6.848L47.2252 6.344H47.2732L47.8732 6.824V8.168C48.2732 7.672 48.8172 7.24 49.5052 6.872C50.1932 6.504 50.9452 6.32 51.7612 6.32C53.2812 6.32 54.5292 6.864 55.5052 7.952C56.4812 9.024 56.9692 10.672 56.9692 12.896ZM50.5132 8.312C50.0332 8.312 49.5772 8.416 49.1452 8.624C48.7132 8.832 48.3852 9.064 48.1612 9.32V18.224C48.2732 18.384 48.4972 18.52 48.8332 18.632C49.1852 18.744 49.5692 18.8 49.9852 18.8C51.0252 18.8 51.8492 18.352 52.4572 17.456C53.0812 16.544 53.3932 15.12 53.3932 13.184C53.3932 11.552 53.1292 10.336 52.6012 9.536C52.0732 8.72 51.3772 8.312 50.5132 8.312ZM57.5156 6.68H63.7076V8.048L62.0276 8.336L63.8036 14.72L64.3796 17.336L64.9076 14.696L67.0676 6.68H69.9716L72.3476 14.696L72.9236 17.336L73.4996 14.72L75.1796 8.36L73.4276 8.048V6.68H78.5636V8.048L77.3396 8.312L73.6916 20.192H70.9316L68.5076 12.416L67.9556 9.56L67.5236 12.416L65.2916 20.192H62.5076L58.6676 8.312L57.5156 8.048V6.68ZM81.9438 4.472C81.3678 4.472 80.9118 4.304 80.5758 3.968C80.2398 3.632 80.0718 3.2 80.0718 2.672C80.0718 2.064 80.2638 1.56 80.6478 1.16C81.0318 0.759999 81.5438 0.559999 82.1838 0.559999C82.8238 0.559999 83.3118 0.735999 83.6478 1.088C83.9838 1.424 84.1518 1.848 84.1518 2.36C84.1518 3 83.9598 3.512 83.5758 3.896C83.1918 4.28 82.6558 4.472 81.9678 4.472H81.9438ZM80.6718 8.936L78.9678 8.48V6.872L83.3598 6.344H83.4078L84.0798 6.824V18.368L85.6878 18.56V20H78.9918V18.56L80.6718 18.344V8.936ZM90.0481 8.384L89.4961 10.736H87.7681V6.656H98.3521L98.9041 7.904L92.5201 16.76L90.8401 18.488L96.2161 18.224L97.3681 15.464L99.0001 15.656L98.6161 20H87.4801L86.8801 18.68L93.4321 10.016L95.1601 8.216L90.0481 8.384Z" fill="white"/>
</svg>
